<?xml version="1.0" encoding="UTF-8" standalone="no"?>
<svg xmlns="http://www.w3.org/2000/svg" width="100" height="100" version="1.1">
<!--
i didnt really make comments so i'm going to do that now
this is probably the head??
-->
<!-- head -->
	<ellipse cx="50" cy="50" rx="30" ry="35" fill="wheat" />
<!-- beard -->
	<path d="
		M 20 50
		C 20 100 80 100 80 50
		C 80 85 20 85 20 50
	Z" fill="#111" />
<!-- stache -->
	<path d="
		M 30 75
		C 30 50 70 50 70 75
		L 65 75
		C 70 55 30 55 35 75
	Z" fill="#111" />
<!-- mouth -->
<path d="M 42 65 L 58 65
	A 7.25 7.25 0 0 1 42 65
	Z" stroke="black" stroke-width="3" fill="white" />
<!-- eyes -->
	<ellipse cx="38" cy="47" rx="6" ry="4" fill="white" />
	<ellipse cx="62" cy="47" rx="6" ry="4" fill="white" />
<!-- pupils -->
	<circle cx="38" cy="47" r="2" fill="black" />
	<circle cx="62" cy="47" r="2" fill="black" />
<!-- glasses -->
	<path d="
		M 20 40
		L 30 42
		Q 40 40 48 42
		L 52 42
		Q 60 40 70 42
		L 80 40
		L 70 42
		C 75 60 50 60 52 43
		L 48 43
		C 50 60 25 60 30 42
	Z" fill="#0000" stroke="black" stroke-width="2"/>
</svg>

